<svg xmlns="http://www.w3.org/2000/svg" viewBox="0 0 1200 120" width="1200" height="120" role="img" aria-label="Deplyra — build it as code, ship it with GitOps.">
  <defs>
    <linearGradient id="fbg" x1="0" y1="0" x2="1" y2="1">
      <stop offset="0" stop-color="#0B1524"/><stop offset="1" stop-color="#0E1B2A"/>
    </linearGradient>
    <linearGradient id="fl" x1="0" y1="1" x2="0.4" y2="0">
      <stop offset="0" stop-color="#3D7DBF"/><stop offset="1" stop-color="#53E8D4"/>
    </linearGradient>
    <radialGradient id="fg" cx="0.5" cy="0.5" r="0.5">
      <stop offset="0" stop-color="#53E8D4" stop-opacity="0.4"/><stop offset="1" stop-color="#53E8D4" stop-opacity="0"/>
    </radialGradient>
  </defs>
  <rect width="1200" height="120" rx="14" fill="url(#fbg)"/>
  <ellipse cx="600" cy="0" rx="500" ry="120" fill="url(#fg)"/>
  <g fill="#5E7C93">
    <circle cx="140" cy="30" r="1.5"/><circle cx="300" cy="90" r="1.3"/><circle cx="1060" cy="34" r="1.5"/><circle cx="920" cy="88" r="1.3"/>
  </g>
  <!-- mini constellation -->
  <g transform="translate(452,18) scale(0.2)">
    <g stroke="url(#fl)" stroke-width="8" stroke-linecap="round" fill="none">
      <path d="M244 134 L191 194 L225 236 L321 270 L287 378 L191 344 L225 236"/>
    </g>
    <circle cx="244" cy="134" r="18" fill="#EAF8FF"/>
    <path d="M244 90 L252 126 L290 134 L252 142 L244 180 L236 142 L198 134 L236 126 Z" fill="#EAF8FF" opacity="0.9"/>
  </g>
  <text x="512" y="58" font-family="Verdana, Segoe UI, Arial, sans-serif" font-size="30" font-weight="800" fill="#EAF8FF" letter-spacing="3">DEPLYRA</text>
  <text x="513" y="82" font-family="Consolas, Courier New, monospace" font-size="12.5" fill="#53E8D4" letter-spacing="2">BUILD IT AS CODE · SHIP IT WITH GITOPS</text>
</svg>
